HIERARCHY
ROOT Hips
{
	OFFSET 0.000000 0.000000 0.000000
	CHANNELS 6 Xposition Yposition Zposition Zrotation Yrotation Xrotation 
	JOINT LHipJoint
	{
		OFFSET 0.000000 0.000000 0.000000
		CHANNELS 3 Zrotation Yrotation Xrotation
		JOINT LeftUpLeg
		{
			OFFSET 1.363060 -1.794630 0.839290
			CHANNELS 3 Zrotation Yrotation Xrotation
			JOINT LeftLeg
			{
				OFFSET 2.448110 -6.726130 0.000000
				CHANNELS 3 Zrotation Yrotation Xrotation
				JOINT LeftFoot
				{
					OFFSET 2.562200 -7.039590 0.000000
					CHANNELS 3 Zrotation Yrotation Xrotation
					JOINT LeftToeBase
					{
						OFFSET 0.157640 -0.433110 2.322550
						CHANNELS 3 Zrotation Yrotation Xrotation
						End Site
						{
							OFFSET 0.000000 0.000000 0.000000
						}
					}
				}
			}
		}
	}
	JOINT RHipJoint
	{
		OFFSET 0.000000 0.000000 0.000000
		CHANNELS 3 Zrotation Yrotation Xrotation
		JOINT RightUpLeg
		{
			OFFSET -1.305520 -1.794630 0.839290
			CHANNELS 3 Zrotation Yrotation Xrotation
			JOINT RightLeg
			{
				OFFSET -2.542530 -6.985550 0.000000
				CHANNELS 3 Zrotation Yrotation Xrotation
				JOINT RightFoot
				{
					OFFSET -2.568260 -7.056230 0.000000
					CHANNELS 3 Zrotation Yrotation Xrotation
					JOINT RightToeBase
					{
						OFFSET -0.164730 -0.452590 2.363150
						CHANNELS 3 Zrotation Yrotation Xrotation
						End Site
						{
							OFFSET 0.000000 0.000000 0.000000
						}
					}
				}
			}
		}
	}
	JOINT LowerBack
	{
		OFFSET 0.000000 0.000000 0.000000
		CHANNELS 3 Zrotation Yrotation Xrotation
		JOINT Spine
		{
			OFFSET 0.028270 2.035590 -0.193380
			CHANNELS 3 Zrotation Yrotation Xrotation
			JOINT Spine1
			{
				OFFSET 0.056720 2.048850 -0.042750
				CHANNELS 3 Zrotation Yrotation Xrotation
				JOINT Neck
				{
					OFFSET 0.000000 0.000000 0.000000
					CHANNELS 3 Zrotation Yrotation Xrotation
					JOINT Neck1
					{
						OFFSET -0.054170 1.746240 0.172020
						CHANNELS 3 Zrotation Yrotation Xrotation
						JOINT Head
						{
							OFFSET 0.104070 1.761360 -0.123970
							CHANNELS 3 Zrotation Yrotation Xrotation
							End Site
							{
								OFFSET 0.000000 0.000000 0.000000
							}
						}
					}
				}
				JOINT LeftShoulder
				{
					OFFSET 0.000000 0.000000 0.000000
					CHANNELS 3 Zrotation Yrotation Xrotation
					JOINT LeftArm
					{
						OFFSET 3.362410 1.200890 -0.311210
						CHANNELS 3 Zrotation Yrotation Xrotation
						JOINT LeftForeArm
						{
							OFFSET 4.983000 -0.000000 -0.000000
							CHANNELS 3 Zrotation Yrotation Xrotation
							JOINT LeftHand
							{
								OFFSET 3.483560 -0.000000 -0.000000
								CHANNELS 3 Zrotation Yrotation Xrotation
								JOINT LeftFingerBase
								{
									OFFSET 0.000000 0.000000 0.000000
									CHANNELS 3 Zrotation Yrotation Xrotation
									JOINT LeftHandIndex1
									{
										OFFSET 0.715260 -0.000000 -0.000000
										CHANNELS 3 Zrotation Yrotation Xrotation
										End Site
										{
											OFFSET 0.000000 0.000000 0.000000
										}
									}
								}
								JOINT LThumb
								{
									OFFSET 0.000000 0.000000 0.000000
									CHANNELS 3 Zrotation Yrotation Xrotation
									End Site
									{
										OFFSET 0.000000 0.000000 0.000000
									}
								}
							}
						}
					}
				}
				JOINT RightShoulder
				{
					OFFSET 0.000000 0.000000 0.000000
					CHANNELS 3 Zrotation Yrotation Xrotation
					JOINT RightArm
					{
						OFFSET -3.136600 1.374050 -0.404650
						CHANNELS 3 Zrotation Yrotation Xrotation
						JOINT RightForeArm
						{
							OFFSET -5.241900 -0.000000 -0.000000
							CHANNELS 3 Zrotation Yrotation Xrotation
							JOINT RightHand
							{
								OFFSET -3.444170 -0.000000 -0.000000
								CHANNELS 3 Zrotation Yrotation Xrotation
								JOINT RightFingerBase
								{
									OFFSET 0.000000 0.000000 0.000000
									CHANNELS 3 Zrotation Yrotation Xrotation
									JOINT RightHandIndex1
									{
										OFFSET -0.622530 -0.000000 -0.000000
										CHANNELS 3 Zrotation Yrotation Xrotation
										End Site
										{
											OFFSET 0.000000 0.000000 0.000000
										}
									}
								}
								JOINT RThumb
								{
									OFFSET 0.000000 0.000000 0.000000
									CHANNELS 3 Zrotation Yrotation Xrotation
									End Site
									{
										OFFSET 0.000000 0.000000 0.000000
									}
								}
							}
						}
					}
				}
			}
		}
	}
}
MOTION
Frames: 7
Frame Time: 0.033333
-0.013468 23.793523 -0.013468 1.472173 -2.476074 12.162747 -9.973908 5.896428 3.289469 -5.667667 -14.888477 -22.063775 -2.639643 -4.479712 8.584573 6.040395 18.540680 70.468525 0.000000 0.000000 0.000000 12.912531 -4.484078 1.035148 1.087187 6.990401 -19.597875 4.657763 -3.154273 10.871741 -0.255630 -8.273684 23.394895 0.000000 0.000000 0.000000 -2.622173 -0.355042 6.014650 0.202865 -0.106429 0.436995 2.332515 0.201616 -5.301061 0.339940 -0.279993 -2.966279 1.873843 -0.125670 3.615333 0.000000 0.000000 0.000000 4.852569 11.640784 8.296859 -72.567375 -14.613464 -11.262423 -151.478103 -83.019654 179.560289 7.065982 -7.146467 -0.225968 7.136425 -7.108685 0.000000 0.000000 0.000000 0.000000 0.000000 0.000000 0.000000 -2.720739 -11.442878 7.173384 63.751835 6.571030 20.276809 20.460237 74.787317 0.397796 -0.281687 12.323765 0.196515 -0.298245 12.328112 0.000000 0.000000 0.000000 0.000000 0.000000 0.000000 0.000000 
-0.013440 23.699464 0.020386 1.675166 -2.738602 12.033698 -9.113413 6.935244 3.380520 -6.980329 -15.598097 -22.603530 -2.746352 -4.113541 10.107005 5.426517 17.898139 69.050196 0.000000 0.000000 0.000000 12.214304 -4.781946 1.009154 1.656514 7.253343 -19.392183 4.687307 -3.116438 11.270644 -0.230238 -7.364614 21.524664 0.000000 0.000000 0.000000 -2.792882 -0.592053 5.625239 -0.085448 -0.317824 0.855592 3.110286 -0.095420 -5.003002 0.490315 -0.357012 -3.449534 1.465198 -0.120076 3.249930 0.000000 0.000000 0.000000 5.392013 11.526834 7.424016 -72.469981 -15.812477 -15.295067 -147.337680 -82.765902 179.453902 6.940502 -6.008046 -0.279373 7.009550 -5.969943 -0.000000 0.000000 0.000000 0.000000 0.000000 0.000000 0.000000 -2.669850 -11.104742 7.459923 62.914639 7.437282 18.277168 23.899484 69.685875 0.369891 0.124408 11.842695 0.183041 0.111865 11.847349 0.000000 0.000000 0.000000 0.000000 0.000000 0.000000 0.000000 
-0.013362 23.594317 0.055177 1.894214 -2.945689 11.896809 -8.169112 8.085979 3.493747 -8.450320 -16.415592 -23.159274 -2.800789 -3.726666 11.818492 4.746243 17.118535 67.319139 0.000000 0.000000 0.000000 11.434537 -5.150687 0.962356 2.325025 7.527754 -19.171307 4.700696 -3.099000 11.724786 -0.204292 -6.362324 19.398395 0.000000 0.000000 0.000000 -2.942004 -0.826399 5.233541 -0.420812 -0.536068 1.341370 3.918990 -0.393023 -4.886402 0.683268 -0.442439 -3.848151 1.005451 -0.120457 2.895894 0.000000 0.000000 0.000000 5.952926 11.342652 6.357220 -72.126438 -16.785471 -18.827924 -143.033454 -83.039024 179.366199 6.696875 -4.951976 -0.323381 6.763993 -4.913663 -0.000000 0.000000 0.000000 0.000000 0.000000 0.000000 0.000000 -2.654631 -10.765523 7.591855 62.099253 8.255219 15.812725 26.804731 64.017901 0.327988 0.440093 11.227820 0.162521 0.430305 11.232260 0.000000 0.000000 0.000000 0.000000 0.000000 0.000000 0.000000 
-0.012990 23.478093 0.091268 2.122517 -3.098963 11.748441 -7.158615 9.348162 3.631304 -10.050668 -17.336090 -23.720081 -2.806638 -3.317191 13.741131 4.022697 16.180516 65.214792 0.000000 0.000000 0.000000 10.578002 -5.594595 0.895241 3.098897 7.811162 -18.929305 4.691881 -3.101526 12.238058 -0.177930 -5.265215 17.012609 0.000000 0.000000 0.000000 -3.060446 -1.058717 4.845253 -0.806787 -0.760469 1.888296 4.763258 -0.683732 -4.962640 0.913615 -0.538542 -4.145360 0.489169 -0.127667 2.551303 0.000000 0.000000 0.000000 6.512452 11.084467 5.112827 -71.527567 -17.516522 -21.732289 -138.431102 -83.908094 179.300470 6.368020 -3.997049 -0.356242 6.432269 -3.958750 0.000000 0.000000 0.000000 0.000000 0.000000 0.000000 0.000000 -2.642576 -10.403387 7.560731 61.286768 8.987478 13.086757 28.890379 57.905468 0.275419 0.650684 10.505289 0.136595 0.642460 10.509181 0.000000 0.000000 0.000000 0.000000 0.000000 0.000000 0.000000 
-0.012116 23.351210 0.128408 2.350046 -3.204592 11.581455 -6.110049 10.713745 3.794105 -11.734454 -18.344127 -24.271224 -2.773149 -2.885471 15.883025 3.293510 15.069955 62.690750 0.000000 0.000000 0.000000 9.654787 -6.115510 0.810911 3.981298 8.100261 -18.658344 4.654955 -3.120486 12.809611 -0.150602 -4.075774 14.378616 0.000000 0.000000 0.000000 -3.135636 -1.289451 4.464974 -1.246370 -0.989948 2.481932 5.643775 -0.960678 -5.213534 1.174844 -0.647197 -4.325491 -0.089362 -0.142132 2.204497 0.000000 0.000000 0.000000 7.044953 10.743309 3.717006 -70.665660 -18.012819 -23.833647 -133.403388 -85.491491 179.260419 5.974502 -3.147298 -0.376016 6.034491 -3.109650 0.000000 0.000000 0.000000 0.000000 0.000000 0.000000 0.000000 -2.600357 -9.989941 7.378046 60.472560 9.609127 10.362083 30.000153 51.561714 0.218763 0.762980 9.714945 0.108553 0.755591 9.718162 0.000000 0.000000 0.000000 0.000000 0.000000 0.000000 0.000000 
0.005239 23.225300 0.182059 2.540497 -3.054857 11.314024 -5.585561 12.408223 4.083184 -12.757272 -19.344049 -25.535307 -3.011296 -1.893747 19.007538 2.813328 14.099831 59.802205 0.000000 0.000000 0.000000 8.644316 -7.118128 1.068801 4.996269 8.559356 -18.722187 4.556298 -3.138826 13.546009 -0.126405 -2.860286 11.778122 0.000000 0.000000 0.000000 -2.589899 -1.249866 3.524204 -1.838828 -1.112167 4.269285 6.078738 -1.003617 -6.490976 1.255395 -0.637157 -4.427577 -0.512842 -0.149995 1.948125 0.000000 0.000000 0.000000 6.038628 10.749735 4.329491 -70.742045 -17.113376 -23.401968 -135.002188 -84.890494 179.263364 6.151975 -3.442018 -0.374716 6.214219 -3.403713 0.000000 0.000000 0.000000 0.000000 0.000000 0.000000 0.000000 -1.261434 -10.969066 6.008985 58.763381 10.441392 5.687281 29.133270 37.685539 0.119663 0.781430 7.963035 0.059414 0.775597 7.965015 0.000000 0.000000 0.000000 0.000000 0.000000 0.000000 0.000000 
0.023996 23.090733 0.237210 2.684200 -2.861394 10.975126 -5.163528 14.162102 4.447903 -13.578313 -20.416389 -26.866001 -3.196141 -0.858615 22.349490 2.427360 13.080615 56.640022 0.000000 0.000000 0.000000 7.621560 -8.227587 1.387537 6.098110 9.035172 -18.769631 4.415161 -3.157511 14.356552 -0.096514 -1.559817 8.998204 0.000000 0.000000 0.000000 -1.944838 -1.131434 2.448947 -2.347485 -1.161831 6.356219 6.585291 -1.000640 -8.001116 0.998954 -0.580039 -4.358380 -0.895701 -0.156137 1.647770 0.000000 0.000000 0.000000 4.777329 10.544084 5.053196 -70.721927 -16.107057 -22.881214 -136.675811 -84.350235 179.268821 6.348533 -3.785616 -0.372156 6.413215 -3.746608 0.000000 0.000000 0.000000 0.000000 0.000000 0.000000 0.000000 0.708784 -11.728555 4.287672 56.718351 10.980597 2.736627 25.466359 25.402158 0.062054 0.677696 6.368593 0.030834 0.673845 6.369729 0.000000 0.000000 0.000000 0.000000 0.000000 0.000000 0.000000 
